<svg xmlns="http://www.w3.org/2000/svg" xmlns:xlink="http://www.w3.org/1999/xlink" viewBox="0 0 187.13 123.59"><defs><style>.cls-1{font-size:44px;fill:#1d1d1b;font-family:BahijTheSansArabic-Black, Bahij TheSansArabic;font-weight:800;}.cls-2{font-size:67.31px;}.cls-3{fill:url(#linear-gradient);}</style><linearGradient id="linear-gradient" x1="139.62" y1="62.69" x2="186.95" y2="62.69" gradientUnits="userSpaceOnUse"><stop offset="0" stop-color="#7d4e24"/><stop offset="1" stop-color="#936037"/></linearGradient></defs><g id="Layer_2" data-name="Layer 2"><g id="Layer_1-2" data-name="Layer 1"><text class="cls-1" transform="translate(0 32.23)">Te Space<tspan class="cls-2"><tspan x="0" y="49.49">Case</tspan></tspan></text><path class="cls-3" d="M186.12,54.61l-13-1.48.63-5.54a.93.93,0,0,0-.82-1l-14.3-1.64a.93.93,0,0,0-1,.82L157,51.28,143.4,49.72a.93.93,0,0,0-1,.82l-2.74,24a.94.94,0,0,0,.82,1l42.71,4.88a.93.93,0,0,0,1-.82l2.75-24A.93.93,0,0,0,186.12,54.61Zm-39.55-.31-2,17.53c-.06.51-.27.9-.49.88l-.57-.07c-.21,0-.33-.45-.27-1l2-17.53c.06-.51.28-.91.49-.88l.57.06C146.5,53.35,146.63,53.78,146.57,54.3Zm20.87,9.26-1.82,1.33a.49.49,0,0,0-.18.54l.7,2.14a.49.49,0,0,1-.75.55l-1.82-1.33a.5.5,0,0,0-.57,0l-1.83,1.33a.49.49,0,0,1-.75-.55l.7-2.14a.47.47,0,0,0-.17-.54l-1.83-1.33a.49.49,0,0,1,.29-.88h2.25a.47.47,0,0,0,.46-.33l.7-2.15a.48.48,0,0,1,.92,0l.7,2.15a.48.48,0,0,0,.46.33h2.26A.49.49,0,0,1,167.44,63.56Zm2.61-11.73a.94.94,0,0,1-1,.82l-7.84-.9a.93.93,0,0,1-.82-1l.16-1.38a.93.93,0,0,1,1-.82l7.84.9a.93.93,0,0,1,.82,1Zm13.29,6.67-2,17.53c-.06.51-.28.91-.49.89l-.57-.07c-.21,0-.33-.46-.28-1l2-17.53c.06-.51.28-.91.49-.89l.57.07C183.27,57.55,183.39,58,183.34,58.5Z"/></g></g></svg>