<svg xmlns="http://www.w3.org/2000/svg" xmlns:xlink="http://www.w3.org/1999/xlink" viewBox="0 0 189.06 157.58"><defs><style>.cls-1{fill:url(#linear-gradient);}.cls-2{font-size:31.81px;fill:#fff;font-family:BahijTheSansArabic-Black, Bahij TheSansArabic;font-weight:800;}.cls-3{font-size:67.31px;}</style><linearGradient id="linear-gradient" x1="210.67" y1="21.71" x2="31.2" y2="115.25" gradientUnits="userSpaceOnUse"><stop offset="0" stop-color="#7d4e24"/><stop offset="1" stop-color="#936037"/></linearGradient></defs><g id="Layer_2" data-name="Layer 2"><g id="Layer_1-2" data-name="Layer 1"><path class="cls-1" d="M185.13,27.41H130.21V3.93A3.93,3.93,0,0,0,126.28,0H65.61a3.93,3.93,0,0,0-3.93,3.93V27.41H3.93A3.93,3.93,0,0,0,0,31.35V133.13a3.94,3.94,0,0,0,3.93,3.94h181.2a3.94,3.94,0,0,0,3.93-3.94V31.35A3.93,3.93,0,0,0,185.13,27.41Zm-72.56,0H79.32a3.93,3.93,0,0,1-3.93-3.93V17.64a3.93,3.93,0,0,1,3.93-3.93h33.25a3.94,3.94,0,0,1,3.94,3.93v5.84A3.94,3.94,0,0,1,112.57,27.41Zm61.16,96h-2.42c-.89,0-1.62-1.76-1.62-3.94V45.05c0-2.17.73-3.93,1.62-3.93h2.42c.9,0,1.63,1.76,1.63,3.93v74.37C175.36,121.6,174.63,123.36,173.73,123.36Zm-156,0H15.33c-.9,0-1.62-1.76-1.62-3.94V45.05c0-2.17.72-3.93,1.62-3.93h2.42c.9,0,1.62,1.76,1.62,3.93v74.37C19.37,121.6,18.65,123.36,17.75,123.36Z"/><text class="cls-2" transform="translate(27.76 66.22)">Te Space<tspan class="cls-3"><tspan x="0" y="49.49">Case</tspan></tspan></text></g></g></svg>